<?xml version="1.0" standalone="no"?>
<!DOCTYPE svg PUBLIC "-//W3C//DTD SVG 20010904//EN"
 "http://www.w3.org/TR/2001/REC-SVG-20010904/DTD/svg10.dtd">
<svg version="1.0" xmlns="http://www.w3.org/2000/svg"
 width="120.000000pt" height="84.000000pt" viewBox="0 0 120.000000 84.000000"
 preserveAspectRatio="xMidYMid meet">

<g transform="translate(0.000000,84.000000) scale(0.100000,-0.100000)"
fill="#000000" stroke="none">
<path d="M483 811 c-175 -65 -272 -242 -230 -417 10 -38 31 -88 47 -112 17
-23 30 -44 30 -46 0 -2 -39 -4 -87 -5 -48 -1 -89 -4 -92 -6 -2 -3 209 -4 470
-4 378 2 453 4 369 12 -58 5 -106 11 -108 12 -2 2 8 21 22 42 14 21 33 69 43
107 40 162 -41 329 -195 402 -77 37 -193 43 -269 15z m262 -23 c52 -28 154
-123 142 -134 -4 -4 -15 -1 -24 6 -10 7 -2 -2 17 -20 23 -22 31 -34 22 -37
-10 -4 -9 -8 5 -18 14 -10 17 -28 17 -87 0 -85 -30 -161 -86 -215 l-33 -31
-201 -7 -201 -6 -46 51 c-156 174 -76 446 153 521 14 5 61 7 105 5 63 -2 91
-8 130 -28z"/>
<path d="M510 670 c0 -23 31 -27 49 -7 14 17 4 27 -26 27 -16 0 -23 -6 -23
-20z"/>
<path d="M594 668 l-19 -23 23 19 c21 18 27 26 19 26 -2 0 -12 -10 -23 -22z"/>
<path d="M447 623 c-14 -15 -19 -15 -26 -5 -6 11 -14 6 -31 -18 -46 -65 14
-45 69 23 18 22 10 22 -12 0z"/>
<path d="M677 613 c-10 -18 -25 -37 -34 -42 -10 -6 -13 -11 -7 -11 16 0 66 59
61 73 -2 7 -11 -2 -20 -20z"/>
<path d="M476 614 c-4 -9 -4 -19 -1 -22 2 -3 7 3 11 12 4 9 4 19 1 22 -2 3 -7
-3 -11 -12z"/>
<path d="M525 620 c3 -5 11 -10 16 -10 6 0 7 5 4 10 -3 6 -11 10 -16 10 -6 0
-7 -4 -4 -10z"/>
<path d="M821 620 c-9 -5 -11 -15 -6 -26 6 -17 8 -17 16 5 11 28 9 33 -10 21z"/>
<path d="M310 590 c0 -5 4 -10 9 -10 6 0 13 5 16 10 3 6 -1 10 -9 10 -9 0 -16
-4 -16 -10z"/>
<path d="M778 573 c6 -2 18 -2 25 0 6 3 1 5 -13 5 -14 0 -19 -2 -12 -5z"/>
<path d="M490 559 c0 -5 5 -7 10 -4 6 3 10 8 10 11 0 2 -4 4 -10 4 -5 0 -10
-5 -10 -11z"/>
<path d="M655 549 c-4 -6 -5 -12 -2 -15 2 -3 7 2 10 11 7 17 1 20 -8 4z"/>
<path d="M570 437 l0 -86 29 9 c16 4 32 6 35 2 3 -3 6 15 6 39 -1 36 -7 51
-35 83 l-35 39 0 -86z m50 -42 c0 -30 -25 -34 -33 -6 -5 22 0 31 20 31 7 0 13
-11 13 -25z"/>
<path d="M510 437 c0 -19 4 -25 15 -21 8 4 15 1 15 -7 0 -7 3 -10 6 -6 4 3 -3
18 -15 33 l-21 27 0 -26z"/>
<path d="M657 440 c3 -11 14 -20 25 -20 22 0 16 15 -12 30 -15 8 -17 7 -13
-10z"/>
<path d="M660 374 c0 -14 4 -23 9 -20 5 3 7 15 4 26 -7 28 -13 25 -13 -6z"/>
<path d="M690 390 c0 -6 7 -10 15 -10 8 0 15 2 15 4 0 2 -7 6 -15 10 -8 3 -15
1 -15 -4z"/>
<path d="M506 361 c-3 -4 6 -6 19 -3 14 2 25 6 25 8 0 8 -39 4 -44 -5z"/>
<path d="M491 289 c18 -26 20 -27 106 -22 67 4 92 10 105 24 17 17 16 17 -20
13 -21 -3 -32 -2 -25 3 6 4 -32 8 -87 8 l-98 0 19 -26z"/>
<path d="M144 148 c-4 -6 0 -16 9 -23 22 -16 21 -22 0 -28 -14 -4 -12 -5 5 -6
25 -1 31 26 7 35 -20 8 -19 21 3 27 15 4 15 5 0 6 -9 0 -20 -4 -24 -11z"/>
<path d="M213 125 c0 -22 2 -30 4 -17 2 12 2 30 0 40 -3 9 -5 -1 -4 -23z"/>
<path d="M250 146 c0 -9 5 -16 10 -16 6 0 10 4 10 9 0 6 -4 13 -10 16 -5 3
-10 -1 -10 -9z"/>
<path d="M292 143 c-1 -12 -6 -23 -12 -25 -6 -2 -6 -9 0 -18 13 -22 22 -6 17
32 -2 18 -5 23 -5 11z"/>
<path d="M329 144 c-9 -11 -10 -20 -2 -32 14 -23 57 -22 61 1 2 11 -3 17 -15
16 -10 0 -13 -3 -5 -6 21 -8 13 -25 -10 -21 -31 4 -29 29 2 45 23 12 24 13 4
13 -12 0 -27 -7 -35 -16z"/>
<path d="M422 123 l1 -38 4 33 c3 20 9 32 16 29 18 -6 21 -38 5 -49 -10 -8
-10 -9 2 -5 20 5 26 47 8 58 -27 18 -38 9 -36 -28z"/>
<path d="M502 125 c0 -22 2 -32 5 -22 2 9 11 17 20 17 9 0 13 -6 9 -15 -3 -8
-1 -15 4 -15 6 0 9 17 9 38 -1 20 -3 29 -6 20 -2 -10 -11 -18 -18 -18 -7 0
-16 8 -18 18 -3 9 -5 -1 -5 -23z"/>
<path d="M580 145 c-8 -10 -9 -15 -1 -15 6 0 11 5 11 10 0 6 5 10 11 10 6 0 9
-9 6 -19 -2 -10 0 -25 5 -32 6 -10 8 -3 6 20 -3 39 -19 49 -38 26z"/>
<path d="M684 148 c-4 -6 0 -16 9 -23 22 -16 21 -22 0 -28 -14 -4 -12 -5 5 -6
24 -1 29 18 10 37 -10 10 -10 15 2 22 13 8 13 10 -2 10 -9 0 -20 -5 -24 -12z"/>
<path d="M754 146 c-3 -8 -4 -25 -1 -38 3 -17 5 -15 6 10 0 17 6 32 12 32 6 0
8 -7 4 -17 -5 -14 -3 -15 6 -6 12 12 5 33 -12 33 -5 0 -12 -6 -15 -14z"/>
<path d="M823 125 c0 -22 2 -30 4 -17 2 12 2 30 0 40 -3 9 -5 -1 -4 -23z"/>
<path d="M870 131 c0 -16 -6 -32 -12 -34 -8 -3 -6 -6 5 -6 13 -1 17 7 17 34 0
19 -2 35 -5 35 -3 0 -5 -13 -5 -29z"/>
<path d="M922 151 c-8 -4 -12 -19 -10 -32 4 -29 45 -34 61 -7 19 30 -19 60
-51 39z m37 -10 c19 -12 6 -41 -19 -41 -13 0 -20 7 -20 18 0 31 14 39 39 23z"/>
<path d="M1001 123 c1 -24 3 -29 6 -15 2 12 8 22 13 22 5 0 7 7 4 15 -11 28
-24 15 -23 -22z"/>
<path d="M1047 140 c3 -11 0 -20 -6 -20 -5 0 -8 -7 -5 -15 10 -25 19 -17 21
20 2 19 -1 35 -6 35 -5 0 -7 -9 -4 -20z"/>
<path d="M240 105 c0 -8 4 -15 10 -15 5 0 7 7 4 15 -4 8 -8 15 -10 15 -2 0 -4
-7 -4 -15z"/>
<path d="M780 100 c0 -5 5 -10 10 -10 6 0 10 5 10 10 0 6 -4 10 -10 10 -5 0
-10 -4 -10 -10z"/>
</g>
</svg>
